Encoded by Ratzz.








General
Complete name                    : The Artist 2011 1080p Brrip x264 Ratzz.mp4
Format                           : MP4
Format profile                   : Base Media
Codec ID                         : isom
File size                        : 1.17 GiB
Duration                         : 1h 40mn
Overall bit rate                 : 1 664 Kbps

Video
ID                               : 1
Format                           : AVC
Format/Info                      : Advanced Video Codec
Format profile                   : High@L4.0
Format settings, CABAC           : Yes
Format settings, ReFrames        : 3 frames
Duration                         : 1h 40mn
Bit rate mode                    : Variable
Bit rate                         : 1 600 Kbps
Maximum bit rate                 : 25.0 Mbps
Width                            : 1 424 pixels
Height                           : 1 080 pixels
Display aspect ratio             : 4:3
Frame rate mode                  : Constant
Frame rate                       : 23.976 fps
Color space                      : YUV
Chroma subsampling               : 4:2:0
Bit depth                        : 8 bits
Scan type                        : Progressive
Bits/(Pixel*Frame)               : 0.043
Stream size                      : 1.12 GiB (96%)


Audio
ID                               : 2
Format                           : AAC
Format/Info                      : Advanced Audio Codec
Format profile                   : HE-AAC / LC
Codec ID                         : 40
Duration                         : 1h 40mn
Bit rate mode                    : Variable
Bit rate                         : 64.0 Kbps
Maximum bit rate                 : 72.9 Kbps
Channel(s)                       : 2 channels
Channel positions                : Front: L R
Sampling rate                    : 48.0 KHz / 24.0 KHz
Compression mode                 : Lossy
Stream size                      : 46.0 MiB (4%)
Language                         : French






Subtitles                       : eng .srt file included.






Poster :
 
http://img707.imageshack.us/img707/9287/theartist20111080pbrrip.jpg



Screens :

 
http://img20.imageshack.us/img20/9287/theartist20111080pbrrip.jpg
 
http://img401.imageshack.us/img401/9287/theartist20111080pbrrip.jpg
 
http://img195.imageshack.us/img195/9287/theartist20111080pbrrip.jpg





pls seed back after download and provide feedback.
thank you.